<svg width="35" height="35" xmlns="http://www.w3.org/2000/svg">
 <g>
  <title>Layer 1</title>
  <g id="svg_3">
   <path id="svg_4" d="m402.70862,299.82525l-2.10862,-1.26525l0,-0.96l0.9,0c0.16575,0 0.3,-0.13425 0.3,-0.3l0,-0.6c0,-0.16575 -0.13425,-0.3 -0.3,-0.3l-0.9,0l0,-0.9c0,-0.16575 -0.13425,-0.3 -0.3,-0.3l-0.6,0c-0.16575,0 -0.3,0.13425 -0.3,0.3l0,0.9l-0.9,0c-0.16575,0 -0.3,0.13425 -0.3,0.3l0,0.6c0,0.16575 0.13425,0.3 0.3,0.3l0.9,0l0,0.96l-2.10862,1.26525a0.59994,0.59994 0 0 0 -0.29138,0.5145l0,4.46025l1.8,0l0,-1.8c0,-0.66281 0.53719,-1.2 1.2,-1.2c0.66281,0 1.2,0.53719 1.2,1.2l0,1.8l1.8,0l0,-4.46025c0,-0.21075 -0.11063,-0.40613 -0.29138,-0.5145zm-8.70862,2.799l0,1.87575c0,0.16575 0.13425,0.3 0.3,0.3l2.1,0l0,-3.6l-2.03644,0.87262a0.60045,0.60045 0 0 0 -0.36356,0.55163zm11.63644,-0.55163l-2.03644,-0.87262l0,3.6l2.1,0c0.16575,0 0.3,-0.13425 0.3,-0.3l0,-1.87575c0,-0.24 -0.14306,-0.45694 -0.36356,-0.55163z"/>
  </g>
  <path fill="#1a2c4b" stroke="null" id="svg_6" d="m25.04935,11.7514l-5.48083,-3.83271c-1.43222,-0.5099 -1.39533,-0.8236 -3.1191,0l-5.48081,3.83271a1.55939,1.81735 0 0 0 -0.75738,1.55853l0,13.51109l4.67865,0l0,-5.45261c0,-2.00779 1.39629,-3.63505 3.1191,-3.63505c1.7228,0 3.11909,1.62726 3.11909,3.63505l0,5.45261l4.67865,0l0,-13.51109c0,-0.3192 -0.07189,-0.62676 -0.2025,-0.89555c-0.13061,-0.26881 -0.31996,-0.49883 -0.55486,-0.66298zm-22.63586,8.47878l0,5.68206c0,0.5021 0.34895,0.90878 0.77977,0.90878l5.45842,0l0,-10.9052l-5.29321,2.64335a1.56072,1.8189 0 0 0 -0.94499,1.67101zm30.24599,-1.67101l-5.29322,-2.64335l0,10.9052l5.45842,0c0.43083,0 0.77977,-0.40668 0.77977,-0.90878l0,-5.68206c0,-0.72701 -0.37184,-1.38417 -0.94497,-1.67101z"/>
 </g>

</svg>