<svg width="30" height="30" xmlns="http://www.w3.org/2000/svg" fill="#000000" xml:space="preserve" enable-background="new 0 0 64 64" version="1.0">

 <g>
  <title>Layer 1</title>
  <g stroke-width="0" id="SVGRepo_bgCarrier"/>
  <g stroke-linejoin="round" stroke-linecap="round" id="SVGRepo_tracerCarrier"/>
  <g stroke="null" id="SVGRepo_iconCarrier">
   <path stroke="null" id="svg_1" d="m14.86715,2.331c-5.46586,0 -9.89745,4.32721 -9.89745,9.66435c0,2.10159 0.70561,4.03003 1.87845,5.60935c0.02103,0.03785 0.02433,0.08013 0.04825,0.11637l6.5983,9.66435c0.306,0.44818 0.82149,0.71718 1.37245,0.71718s1.06645,-0.26899 1.37245,-0.71718l6.5983,-9.66435c0.02433,-0.03624 0.02722,-0.07852 0.04825,-0.11637c1.17285,-1.57932 1.87845,-3.50776 1.87845,-5.60935c0,-5.33714 -4.43158,-9.66435 -9.89745,-9.66435zm0,12.8858c-1.82195,0 -3.29915,-1.4424 -3.29915,-3.22145s1.47719,-3.22145 3.29915,-3.22145s3.29915,1.4424 3.29915,3.22145s-1.47719,3.22145 -3.29915,3.22145z" fill="#f0ab00"/>
  </g>
 </g>
</svg>