<svg xmlns="http://www.w3.org/2000/svg" height="40" viewBox="0 -960 960 960" width="40"><path d="M790.667-89.334 525-354.334q-29 21.949-68.139 34.641Q417.721-307 372-307q-116.108 0-196.887-80.834-80.78-80.833-80.78-195.499 0-114.667 80.834-195.5Q256-859.667 371-859.667t195.5 80.834Q647-698 647-583.233q0 45.233-12.334 83.4-12.333 38.166-35.666 70.166L865.667-164l-75 74.666ZM371.569-411.666q71.931 0 121.348-50 49.417-50.001 49.417-121.667 0-71.667-49.515-121.667-49.515-50.001-121.25-50.001-72.291 0-122.43 50.001Q199-655 199-583.333q0 71.666 50.041 121.667 50.041 50 122.528 50Z"/></svg>